<svg xmlns="http://www.w3.org/2000/svg" width="38.978" height="38.939" viewBox="0 0 38.978 38.939">
  <g id="sniper-target" transform="translate(-240 -178)">
    <path id="Path_3" data-name="Path 3" d="M443.881,384.881a17.511,17.511,0,1,1,0,24.765A17.507,17.507,0,0,1,443.881,384.881Zm1.289,1.289a15.695,15.695,0,1,1,0,22.2A15.689,15.689,0,0,1,445.17,386.17Z" transform="translate(-196.794 -199.764)" fill="#f60" fill-rule="evenodd"/>
    <path id="Path_4" data-name="Path 4" d="M240.591,196.889h7.49v-3.3c0-.069.177-.128.394-.128s.394.059.394.128v3.3h9.991V186.9h-3.3c-.069,0-.128-.177-.128-.394s.059-.394.128-.394h3.3v-7.49a.617.617,0,0,1,.315-.532l.01-.01.01-.01.01-.01.01-.01.01-.01.01-.01.01-.01.01-.01h.443l.01.01.01.01.01.01.01.01.01.01.01.01.01.01.01.01.01.01.01.01.01.01.01.01.01.01.01.01.01.01.01.01.01.01.01.01.01.01.01.01.01.01.01.01.01.01.01.01.01.01.01.01.01.01.01.01.01.01.01.01.01.01.01.01.01.01.01.01.01.01.01.01.01.01.01.01v7.707h3.3c.069,0,.128.177.128.394s-.059.394-.128.394h-3.3v9.991h9.991v-3.3c0-.069.177-.128.394-.128s.394.059.394.128v3.3h7.717l.01.01.01.01.01.01.01.01.01.01.01.01.01.01.01.01.01.01.01.01.01.01.01.01.01.01.01.01.01.01.01.01.01.01.01.01.01.01.01.01.01.01.01.01.01.01.01.01.01.01.01.01.01.01.01.01.01.01.01.01.01.01.01.01.01.01.01.01.01.01.01.01.01.01.01.01v.453l-.01.01-.01.01-.01.01-.01.01-.01.01-.01.01-.01.01-.01.01-.01.01-.01.01-.01.01-.01.01-.01.01-.01.01-.01.01-.01.01-.01.01-.01.01-.01.01-.01.01-.01.01-.01.01-.01.01-.01.01-.01.01-.01.01-.01.01-.01.01-.01.01-.01.01-.01.01-.01.01-.01.01-.01.01-.01.01-.01.01-.01.01-.01.01h-7.717v3.3c0,.069-.177.128-.394.128s-.394-.059-.394-.128v-3.3H260.07v9.991h3.3c.069,0,.128.177.128.394s-.059.394-.128.394h-3.3v7.717l-.01.01-.01.01-.01.01-.01.01-.01.01-.01.01-.01.01-.01.01-.01.01-.01.01-.01.01-.01.01-.01.01-.01.01-.01.01-.01.01-.01.01-.01.01-.01.01-.01.01-.01.01-.01.01-.01.01-.01.01-.01.01-.01.01-.01.01-.01.01-.01.01-.01.01-.01.01-.01.01-.01.01-.01.01-.01.01-.01.01-.01.01-.01.01h-.217a.624.624,0,0,1-.62-.62v-7.49h-3.3c-.069,0-.128-.177-.128-.394s.059-.394.128-.394h3.3V198.05h-9.991v3.3c0,.069-.177.128-.394.128s-.394-.059-.394-.128v-3.3h-7.707l-.01-.01-.01-.01-.01-.01-.01-.01-.01-.01-.01-.01-.01-.01-.01-.01-.01-.01-.01-.01-.01-.01-.01-.01-.01-.01-.01-.01-.01-.01-.01-.01-.01-.01-.01-.01-.01-.01-.01-.01-.01-.01-.01-.01-.01-.01-.01-.01-.01-.01-.01-.01-.01-.01-.01-.01-.01-.01-.01-.01-.01-.01-.01-.01-.01-.01-.01-.01-.01-.01-.01-.01-.01-.01-.01-.01v-.453l.01-.01.01-.01.01-.01.01-.01.01-.01.01-.01.01-.01.01-.01.01-.01.01-.01.01-.01.01-.01.01-.01.01-.01.01-.01.01-.01.01-.01.01-.01.01-.01.01-.01.01-.01.01-.01.01-.01.01-.01.01-.01.01-.01.01-.01.01-.01.01-.01.01-.01.01-.01.01-.01.01-.01.01-.01.01-.01.01-.01.01-.01.01-.01h.217ZM259.479,178ZM259.479,178ZM278.978,197.5Z" fill="#f60" fill-rule="evenodd"/>
    <path id="Path_5" data-name="Path 5" d="M1908.081,1847a3.081,3.081,0,1,1-3.081,3.081A3.079,3.079,0,0,1,1908.081,1847Z" transform="translate(-1648.612 -1652.572)" fill="#f60" fill-rule="evenodd"/>
  </g>
</svg>
